<svg xmlns="http://www.w3.org/2000/svg" viewBox="0 0 819 542">
  <defs>
    <linearGradient id="bg" x1="0" x2="1" y1="0" y2="1">
      <stop offset="0" stop-color="#0b1728"/>
      <stop offset="1" stop-color="#07111f"/>
    </linearGradient>
    <linearGradient id="tower" x1="0" x2="1">
      <stop offset="0" stop-color="#132941"/>
      <stop offset="1" stop-color="#1d3d5d"/>
    </linearGradient>
    <filter id="glow"><feGaussianBlur stdDeviation="5" result="b"/><feMerge><feMergeNode in="b"/><feMergeNode in="SourceGraphic"/></feMerge></filter>
  </defs>
  <rect width="819" height="542" fill="url(#bg)"/>
  <g opacity=".24" stroke="#1677ff" stroke-width="1">
    <path d="M0 80H819M0 160H819M0 240H819M0 320H819M0 400H819M0 480H819"/>
    <path d="M80 0V542M160 0V542M240 0V542M320 0V542M400 0V542M480 0V542M560 0V542M640 0V542M720 0V542"/>
  </g>
  <path d="M64 464C210 410 608 410 760 464" fill="none" stroke="#29435e" stroke-width="22" opacity=".72"/>
  <path d="M116 92h560l42 350H92z" fill="#08111e" stroke="#294c72" stroke-width="2"/>
  <g filter="url(#glow)" opacity=".86">
    <path d="M180 100h450l20 66H156z" fill="url(#tower)" stroke="#2d8cff"/>
    <path d="M172 174h466l22 70H148z" fill="url(#tower)" stroke="#2d8cff"/>
    <path d="M164 252h482l24 70H140z" fill="url(#tower)" stroke="#2d8cff"/>
    <path d="M156 330h498l26 96H132z" fill="url(#tower)" stroke="#2d8cff"/>
  </g>
  <g stroke="#6aa8da" opacity=".35">
    <path d="M212 112v300M276 112v300M340 112v300M404 112v300M468 112v300M532 112v300M596 112v300"/>
    <path d="M178 150h452M170 222h476M162 298h492M152 380h512"/>
  </g>
  <text x="410" y="56" fill="#dbefff" font-size="24" font-family="Microsoft YaHei, sans-serif" text-anchor="middle">1号办公楼楼层剖面</text>
  <text x="410" y="508" fill="#7f9bb8" font-size="14" font-family="Microsoft YaHei, sans-serif" text-anchor="middle">楼层状态轮廓层 · 与右侧区域信息联动</text>
</svg>
