<svg xmlns="http://www.w3.org/2000/svg" viewBox="0 0 819 542">
  <defs>
    <linearGradient id="bg" x1="0" x2="1" y1="0" y2="1"><stop offset="0" stop-color="#0a1827"/><stop offset="1" stop-color="#07111f"/></linearGradient>
    <filter id="glow"><feGaussianBlur stdDeviation="5" result="b"/><feMerge><feMergeNode in="b"/><feMergeNode in="SourceGraphic"/></feMerge></filter>
  </defs>
  <rect width="819" height="542" fill="url(#bg)"/>
  <g opacity=".2" stroke="#1677ff"><path d="M0 80H819M0 160H819M0 240H819M0 320H819M0 400H819M0 480H819"/><path d="M80 0V542M160 0V542M240 0V542M320 0V542M400 0V542M480 0V542M560 0V542M640 0V542M720 0V542"/></g>
  <path d="M60 396h700M364 120v260" stroke="#2f4458" stroke-width="24" opacity=".7"/>
  <g filter="url(#glow)">
    <path d="M92 120h264l22 166-306 14z" fill="#102133" stroke="#2d8cff"/>
    <path d="M384 126h148l20 146-180 14z" fill="#102133" stroke="#2d8cff"/>
    <path d="M568 272h146l30 114-192 12z" fill="#102133" stroke="#2d8cff"/>
    <path d="M74 322l672-6 14 70-702 10z" fill="#0d1b2c" stroke="#2d8cff"/>
  </g>
  <text x="410" y="58" fill="#dbefff" font-size="24" font-family="Microsoft YaHei, sans-serif" text-anchor="middle">外部区域安防分区</text>
  <text x="410" y="508" fill="#7f9bb8" font-size="14" font-family="Microsoft YaHei, sans-serif" text-anchor="middle">停车场 · 大门入口 · 门卫室 · 围墙周界</text>
</svg>
