<svg xmlns="http://www.w3.org/2000/svg" viewBox="0 0 819 542">
  <defs>
    <linearGradient id="bg" x1="0" x2="1" y1="0" y2="1"><stop offset="0" stop-color="#0b1728"/><stop offset="1" stop-color="#07111f"/></linearGradient>
    <linearGradient id="block" x1="0" x2="1"><stop offset="0" stop-color="#1a2631"/><stop offset="1" stop-color="#35485a"/></linearGradient>
    <filter id="glow"><feGaussianBlur stdDeviation="5" result="b"/><feMerge><feMergeNode in="b"/><feMergeNode in="SourceGraphic"/></feMerge></filter>
  </defs>
  <rect width="819" height="542" fill="url(#bg)"/>
  <g opacity=".21" stroke="#1677ff"><path d="M0 90H819M0 180H819M0 270H819M0 360H819M0 450H819"/><path d="M90 0V542M180 0V542M270 0V542M360 0V542M450 0V542M540 0V542M630 0V542M720 0V542"/></g>
  <g filter="url(#glow)">
    <path d="M102 150h614l26 260H78z" fill="url(#block)" stroke="#2d8cff" stroke-width="2"/>
    <path d="M156 206h196v150H156zM406 206h248v150H406z" fill="#0d1b2c" stroke="#8bb9df" opacity=".78"/>
    <path d="M102 390h640" stroke="#6aa8da" opacity=".4"/>
  </g>
  <text x="410" y="58" fill="#dbefff" font-size="24" font-family="Microsoft YaHei, sans-serif" text-anchor="middle">4号仓库分区图</text>
  <text x="410" y="508" fill="#7f9bb8" font-size="14" font-family="Microsoft YaHei, sans-serif" text-anchor="middle">库区 · 装卸口 · 周界门磁</text>
</svg>
